<svg xmlns="http://www.w3.org/2000/svg" viewBox="0 0 1600 900" role="img" aria-label="Illustrated walls of Uruk at sunrise with a king standing on the wall">
  <defs>
    <linearGradient id="sky" x1="0" y1="0" x2="0" y2="1"><stop stop-color="#2f6075"/><stop offset=".45" stop-color="#c78c43"/><stop offset="1" stop-color="#f3d7a1"/></linearGradient>
    <linearGradient id="shade" x1="0" y1="0" x2="1" y2="1"><stop stop-color="#5d3728"/><stop offset="1" stop-color="#b36d3d"/></linearGradient>
    <linearGradient id="wallGlow" x1="0" y1="0" x2="1" y2="1"><stop stop-color="#d19a63"/><stop offset="1" stop-color="#8f5036"/></linearGradient>
  </defs>
  <rect width="1600" height="900" fill="url(#sky)"/>
  <circle cx="1220" cy="220" r="125" fill="#ffd27c" opacity=".9"/>
  <path d="M0 620c210-80 390-90 590-38 230 58 416 50 626-30 155-58 260-62 384-20v368H0z" fill="#b87445" opacity=".75"/>
  <path d="M86 475c118-34 228-42 340-16 135 31 264 26 406-12 150-41 284-43 452-8v80H86z" fill="#72412f" opacity=".28"/>
  <path d="M150 430h1040v260H150z" fill="url(#shade)"/>
  <path d="M100 392h1140v70H100z" fill="#c98d58"/>
  <path d="M118 402h1105v22H118z" fill="#e0a367" opacity=".55"/>
  <g fill="#8d5137">
    <rect x="160" y="330" width="84" height="92"/>
    <rect x="312" y="330" width="84" height="92"/>
    <rect x="464" y="330" width="84" height="92"/>
    <rect x="616" y="330" width="84" height="92"/>
    <rect x="768" y="330" width="84" height="92"/>
    <rect x="920" y="330" width="84" height="92"/>
    <rect x="1072" y="330" width="84" height="92"/>
  </g>
  <g fill="url(#wallGlow)" opacity=".35">
    <rect x="188" y="446" width="116" height="70"/>
    <rect x="418" y="446" width="116" height="70"/>
    <rect x="648" y="446" width="116" height="70"/>
    <rect x="878" y="446" width="116" height="70"/>
  </g>
  <path d="M250 690V520c0-78 104-78 104 0v170z" fill="#33251f" opacity=".8"/>
  <g stroke="#d7a16a" stroke-width="10" opacity=".45">
    <path d="M170 495h1000M170 555h1000M170 615h1000"/>
    <path d="M260 432v235M430 432v235M600 432v235M770 432v235M940 432v235M1110 432v235"/>
  </g>
  <g fill="#201815" opacity=".92">
    <path d="M1028 302l20-38 20 38 23-18-7 46h-72l-7-46z"/>
    <circle cx="1048" cy="346" r="28"/>
    <path d="M1018 381c19-20 42-25 66 0l22 112H997z"/>
    <path d="M1005 486h92l24 95H981z"/>
    <path d="M1028 389l-68 48 16 24 60-32z"/>
    <path d="M1073 392l62 58 18-22-70-54z"/>
    <rect x="1134" y="364" width="9" height="170" rx="4"/>
    <path d="M1120 363l19-35 20 35z"/>
  </g>
  <ellipse cx="1047" cy="587" rx="104" ry="18" fill="#201815" opacity=".28"/>
  <rect y="700" width="1600" height="200" fill="#263d36" opacity=".62"/>
</svg>