<svg xmlns="http://www.w3.org/2000/svg" viewBox="0 0 1600 900" role="img" aria-label="Illustrated ancient city wall at sunrise"><defs><linearGradient id="sky" x1="0" y1="0" x2="0" y2="1"><stop stop-color="#2f6075"/><stop offset=".45" stop-color="#c78c43"/><stop offset="1" stop-color="#f3d7a1"/></linearGradient><linearGradient id="shade" x1="0" y1="0" x2="1" y2="1"><stop stop-color="#5d3728"/><stop offset="1" stop-color="#b36d3d"/></linearGradient></defs><rect width="1600" height="900" fill="url(#sky)"/><circle cx="1220" cy="220" r="125" fill="#ffd27c" opacity=".9"/><path d="M0 620c210-80 390-90 590-38 230 58 416 50 626-30 155-58 260-62 384-20v368H0z" fill="#b87445" opacity=".75"/><path d="M150 430h1040v260H150z" fill="url(#shade)"/><path d="M100 392h1140v70H100z" fill="#c98d58"/><g fill="#8d5137"><rect x="160" y="330" width="84" height="92"/><rect x="312" y="330" width="84" height="92"/><rect x="464" y="330" width="84" height="92"/><rect x="616" y="330" width="84" height="92"/><rect x="768" y="330" width="84" height="92"/><rect x="920" y="330" width="84" height="92"/><rect x="1072" y="330" width="84" height="92"/></g><path d="M250 690V520c0-78 104-78 104 0v170z" fill="#33251f" opacity=".8"/><g stroke="#d7a16a" stroke-width="10" opacity=".45"><path d="M170 495h1000M170 555h1000M170 615h1000"/><path d="M260 432v235M430 432v235M600 432v235M770 432v235M940 432v235M1110 432v235"/></g><rect y="700" width="1600" height="200" fill="#263d36" opacity=".62"/></svg>