<svg xmlns="http://www.w3.org/2000/svg" viewBox="0 0 1600 900" role="img" aria-labelledby="title desc"><title id="title">Ancient Uruk and clay tablet</title><desc id="desc">A stylized sunrise over ancient city walls with a clay tablet foreground.</desc><defs><linearGradient id="sky" x1="0" y1="0" x2="1" y2="1"><stop offset="0" stop-color="#17353b"/><stop offset="0.52" stop-color="#315f66"/><stop offset="1" stop-color="#d89542"/></linearGradient><linearGradient id="stone" x1="0" y1="0" x2="0" y2="1"><stop offset="0" stop-color="#c89558"/><stop offset="1" stop-color="#7b4934"/></linearGradient><filter id="grain"><feTurbulence type="fractalNoise" baseFrequency="0.9" numOctaves="2" stitchTiles="stitch"/><feColorMatrix type="saturate" values="0"/><feComponentTransfer><feFuncA type="table" tableValues="0 0.16"/></feComponentTransfer></filter></defs><rect width="1600" height="900" fill="url(#sky)"/><circle cx="1170" cy="275" r="120" fill="#f1bf63" opacity="0.86"/><path d="M0 560 C250 500 390 545 620 500 C870 452 1100 500 1600 450 L1600 900 L0 900 Z" fill="#253d3a" opacity="0.9"/><g fill="url(#stone)"><path d="M690 365 h160 v220 h-160z"/><path d="M730 300 h80 v65 h-80z"/><path d="M910 420 h280 v165 h-280z"/><path d="M965 355 h170 v65 h-170z"/><path d="M210 455 h430 v130 h-430z"/><path d="M275 395 h90 v60 h-90z"/><path d="M455 380 h95 v75 h-95z"/></g><path d="M120 585 H1480" stroke="#e7b36d" stroke-width="18" opacity="0.5"/><g transform="translate(185 585) rotate(-7)"><rect x="0" y="0" width="520" height="250" rx="22" fill="#b86f43"/><rect x="26" y="26" width="468" height="198" rx="14" fill="#d28a55" opacity="0.72"/><g stroke="#573320" stroke-width="9" stroke-linecap="round" opacity="0.68"><path d="M72 72 l42 0 M72 112 l88 0 M72 154 l60 0 M210 72 l120 0 M210 112 l72 0 M210 154 l142 0 M395 72 l44 0 M385 112 l80 0 M392 154 l50 0"/><path d="M118 191 l42 0 M220 191 l110 0 M380 191 l70 0"/></g></g><rect width="1600" height="900" filter="url(#grain)"/><rect width="1600" height="900" fill="#101718" opacity="0.18"/></svg>